{
  "accessors": [
    {
      "bufferView": 2,
      "componentType": 5126,
      "count": 498,
      "max": [
        7.03279447555542,
        6.701490879058838,
        203.23873901367188
      ],
      "min": [
        -7.03279447555542,
        -144.2190704345703,
        0.0
      ],
      "type": "VEC3"
    },
    {
      "bufferView": 2,
      "byteOffset": 5976,
      "componentType": 5126,
      "count": 498,
      "max": [
        0.9851911664009094,
        0.9999996423721313,
        1.0
      ],
      "min": [
        -0.9851911664009094,
        -0.9999996423721313,
        -1.0
      ],
      "type": "VEC3"
    },
    {
      "bufferView": 1,
      "componentType": 5126,
      "count": 498,
      "max": [
        0.6854221820831299,
        0.9990255236625671
      ],
      "min": [
        0.0009744004928506911,
        0.0009744438575580716
      ],
      "type": "VEC2"
    },
    {
      "bufferView": 0,
      "componentType": 5125,
      "count": 1794,
      "type": "SCALAR"
    },
    {
      "bufferView": 2,
      "byteOffset": 11952,
      "componentType": 5126,
      "count": 84,
      "max": [
        6.31873083114624,
        -117.08042907714844,
        196.43199157714844
      ],
      "min": [
        -6.31873083114624,
        -142.73106384277344,
        191.28140258789063
      ],
      "type": "VEC3"
    },
    {
      "bufferView": 2,
      "byteOffset": 12960,
      "componentType": 5126,
      "count": 84,
      "max": [
        0.9629300236701965,
        0.7588536739349365,
        -0.2697466313838959
      ],
      "min": [
        -0.9629299640655518,
        -0.7728171348571777,
        -0.999994695186615
      ],
      "type": "VEC3"
    },
    {
      "bufferView": 1,
      "byteOffset": 3984,
      "componentType": 5126,
      "count": 84,
      "max": [
        0.7679616212844849,
        0.5490291118621826
      ],
      "min": [
        0.6194354891777039,
        0.0009744754643179476
      ],
      "type": "VEC2"
    },
    {
      "bufferView": 0,
      "byteOffset": 7176,
      "componentType": 5125,
      "count": 384,
      "type": "SCALAR"
    }
  ],
  "asset": {
    "extras": {
      "author": "Viktor™ (https://sketchfab.com/miguelmoreno2009)",
      "license": "CC-BY-4.0 (http://creativecommons.org/licenses/by/4.0/)",
      "source": "https://sketchfab.com/3d-models/low-poly-street-light-5079be54bcc4493c995e10564b600109",
      "title": "Low Poly Street Light"
    },
    "generator": "Sketchfab-16.59.0",
    "version": "2.0"
  },
  "bufferViews": [
    {
      "buffer": 0,
      "byteLength": 8712,
      "name": "floatBufferViews",
      "target": 34963
    },
    {
      "buffer": 0,
      "byteLength": 4656,
      "byteOffset": 8712,
      "byteStride": 8,
      "name": "floatBufferViews",
      "target": 34962
    },
    {
      "buffer": 0,
      "byteLength": 13968,
      "byteOffset": 13368,
      "byteStride": 12,
      "name": "floatBufferViews",
      "target": 34962
    }
  ],
  "buffers": [
    {
      "byteLength": 27336,
      "uri": "scene.bin"
    }
  ],
  "extensionsUsed": [
    "KHR_materials_emissive_strength"
  ],
  "images": [
    {
      "uri": "textures/FPS_Main_baseColor.png"
    },
    {
      "uri": "textures/FPS_Main_metallicRoughness.png"
    },
    {
      "uri": "textures/FPS_Light_baseColor.png"
    },
    {
      "uri": "textures/FPS_Light_metallicRoughness.png"
    },
    {
      "uri": "textures/FPS_Light_emissive.png"
    }
  ],
  "materials": [
    {
      "doubleSided": true,
      "name": "FPS_Main",
      "pbrMetallicRoughness": {
        "baseColorTexture": {
          "index": 0
        },
        "metallicRoughnessTexture": {
          "index": 1
        }
      }
    },
    {
      "doubleSided": true,
      "emissiveFactor": [
        1.0,
        1.0,
        1.0
      ],
      "emissiveTexture": {
        "index": 4
      },
      "extensions": {
        "KHR_materials_emissive_strength": {
          "emissiveStrength": 2.118101693262303
        }
      },
      "name": "FPS_Light",
      "pbrMetallicRoughness": {
        "baseColorTexture": {
          "index": 2
        },
        "metallicRoughnessTexture": {
          "index": 3
        }
      }
    }
  ],
  "meshes": [
    {
      "name": "StreetLight_FPS_Main_0",
      "primitives": [
        {
          "attributes": {
            "NORMAL": 1,
            "POSITION": 0,
            "TEXCOORD_0": 2
          },
          "indices": 3,
          "material": 0,
          "mode": 4
        }
      ]
    },
    {
      "name": "StreetLight_FPS_Light_0",
      "primitives": [
        {
          "attributes": {
            "NORMAL": 5,
            "POSITION": 4,
            "TEXCOORD_0": 6
          },
          "indices": 7,
          "material": 1,
          "mode": 4
        }
      ]
    }
  ],
  "nodes": [
    {
      "children": [
        1
      ],
      "matrix": [
        0.34977900981903076,
        -9.908432559081033e-17,
        9.908432559081029e-17,
        0.0,
        -9.908432559081031e-17,
        -7.766654204633532e-17,
        0.34977900981903076,
        0.0,
        -9.908432559081031e-17,
        -0.34977900981903076,
        -7.766654204633534e-17,
        0.0,
        0.0,
        0.0,
        0.0,
        1.0
      ],
      "name": "Sketchfab_model"
    },
    {
      "children": [
        2
      ],
      "matrix": [
        0.009999999776482582,
        0.0,
        0.0,
        0.0,
        0.0,
        -0.009999999776482582,
        0.0,
        0.0,
        0.0,
        0.0,
        -0.009999999776482582,
        0.0,
        0.0,
        0.0,
        0.0,
        1.0
      ],
      "name": "5ec32268f48a42dfb60292907c95f012.fbx"
    },
    {
      "children": [
        3
      ],
      "name": "RootNode"
    },
    {
      "children": [
        4,
        5
      ],
      "matrix": [
        10.0,
        0.0,
        0.0,
        0.0,
        0.0,
        10.0,
        0.0,
        0.0,
        0.0,
        0.0,
        10.0,
        0.0,
        0.0,
        0.0,
        0.0,
        1.0
      ],
      "name": "StreetLight"
    },
    {
      "mesh": 0,
      "name": "StreetLight_FPS_Main_0"
    },
    {
      "mesh": 1,
      "name": "StreetLight_FPS_Light_0"
    }
  ],
  "samplers": [
    {
      "magFilter": 9729,
      "minFilter": 9987,
      "wrapS": 10497,
      "wrapT": 10497
    }
  ],
  "scene": 0,
  "scenes": [
    {
      "name": "Sketchfab_Scene",
      "nodes": [
        0
      ]
    }
  ],
  "textures": [
    {
      "sampler": 0,
      "source": 0
    },
    {
      "sampler": 0,
      "source": 1
    },
    {
      "sampler": 0,
      "source": 2
    },
    {
      "sampler": 0,
      "source": 3
    },
    {
      "sampler": 0,
      "source": 4
    }
  ]
}
